<svg width="400" height="400" xmlns="http://www.w3.org/2000/svg">
  <defs>
    <linearGradient id="kbGrad" x1="0%" y1="0%" x2="100%" y2="100%">
      <stop offset="0%" style="stop-color:#6366f1;stop-opacity:0.9" />
      <stop offset="100%" style="stop-color:#a5b4fc;stop-opacity:0.7" />
    </linearGradient>
  </defs>
  <rect width="400" height="400" fill="url(#kbGrad)"/>
  <!-- Keyboard Body -->
  <rect x="50" y="140" width="300" height="120" fill="#4338ca" stroke="#ffffff" stroke-width="4" rx="10"/>
  <!-- Keys Row 1 -->
  <rect x="70" y="160" width="20" height="20" fill="#a5b4fc" stroke="#ffffff" stroke-width="1" rx="2"/>
  <rect x="100" y="160" width="20" height="20" fill="#a5b4fc" stroke="#ffffff" stroke-width="1" rx="2"/>
  <rect x="130" y="160" width="20" height="20" fill="#a5b4fc" stroke="#ffffff" stroke-width="1" rx="2"/>
  <rect x="160" y="160" width="20" height="20" fill="#a5b4fc" stroke="#ffffff" stroke-width="1" rx="2"/>
  <rect x="190" y="160" width="20" height="20" fill="#a5b4fc" stroke="#ffffff" stroke-width="1" rx="2"/>
  <rect x="220" y="160" width="20" height="20" fill="#a5b4fc" stroke="#ffffff" stroke-width="1" rx="2"/>
  <rect x="250" y="160" width="20" height="20" fill="#a5b4fc" stroke="#ffffff" stroke-width="1" rx="2"/>
  <rect x="280" y="160" width="20" height="20" fill="#a5b4fc" stroke="#ffffff" stroke-width="1" rx="2"/>
  <rect x="310" y="160" width="20" height="20" fill="#a5b4fc" stroke="#ffffff" stroke-width="1" rx="2"/>
  <!-- Keys Row 2 -->
  <rect x="70" y="190" width="20" height="20" fill="#a5b4fc" stroke="#ffffff" stroke-width="1" rx="2"/>
  <rect x="100" y="190" width="20" height="20" fill="#a5b4fc" stroke="#ffffff" stroke-width="1" rx="2"/>
  <rect x="130" y="190" width="20" height="20" fill="#a5b4fc" stroke="#ffffff" stroke-width="1" rx="2"/>
  <rect x="160" y="190" width="20" height="20" fill="#a5b4fc" stroke="#ffffff" stroke-width="1" rx="2"/>
  <rect x="190" y="190" width="20" height="20" fill="#a5b4fc" stroke="#ffffff" stroke-width="1" rx="2"/>
  <rect x="220" y="190" width="20" height="20" fill="#a5b4fc" stroke="#ffffff" stroke-width="1" rx="2"/>
  <rect x="250" y="190" width="20" height="20" fill="#a5b4fc" stroke="#ffffff" stroke-width="1" rx="2"/>
  <rect x="280" y="190" width="20" height="20" fill="#a5b4fc" stroke="#ffffff" stroke-width="1" rx="2"/>
  <rect x="310" y="190" width="20" height="20" fill="#a5b4fc" stroke="#ffffff" stroke-width="1" rx="2"/>
  <!-- Keys Row 3 (Spacebar) -->
  <rect x="130" y="220" width="140" height="20" fill="#a5b4fc" stroke="#ffffff" stroke-width="1" rx="2"/>
  <!-- Cable -->
  <path d="M 350 200 Q 370 210 380 230" stroke="#ffffff" stroke-width="3" fill="none" opacity="0.7"/>
  <!-- Label -->
  <text x="200" y="310" font-family="Arial, sans-serif" font-size="20" font-weight="bold" fill="#ffffff" text-anchor="middle">
    KEYBOARD
  </text>
</svg>
